<svg width="822" height="478" viewBox="0 0 822 478" fill="none" xmlns="http://www.w3.org/2000/svg">
<path d="M497.746 229.926C482.715 224.275 482.715 202.696 481.783 187.668C478.026 134.14 496.814 52.4199 474.268 17.6762C458.305 -3.00178 381.258 -1.1083 334.302 1.71688C321.136 3.61036 305.173 6.40551 293.9 12.0559C282.627 17.7062 271.354 27.0834 271.354 35.5289C271.354 47.7313 299.551 45.8679 309.863 61.8272C321.136 78.7482 321.136 115.355 321.136 145.411C321.136 180.154 315.484 226.199 301.415 228.062C279.801 228.994 267.596 207.384 256.323 191.425C233.777 160.438 211.231 121.907 194.307 84.3385C185.86 64.6223 181.14 43.0127 168.935 34.5672C150.147 21.403 116.328 20.4713 83.4405 21.403C53.3792 22.3347 10.151 18.5778 1.70378 36.4306C-4.87965 56.1468 9.21911 74.9312 16.7344 90.9206C55.243 174.504 96.5774 247.778 147.321 317.266C194.307 382.065 238.437 433.73 324.863 460.96C349.303 468.473 456.381 490.083 477.996 460.96C485.511 449.689 483.647 424.322 487.405 405.538C491.162 386.753 495.852 367.969 513.708 367.037C528.739 366.106 537.186 379.24 546.596 388.647C556.937 398.986 565.384 407.431 572.899 416.839C590.756 434.691 609.544 459.096 632.09 468.503C663.083 481.668 711.001 477.911 756.093 476.017C792.738 475.085 819.041 467.572 821.867 445.962C823.761 429.041 804.943 404.636 793.67 390.54C765.472 355.797 752.335 345.458 720.38 313.509C706.281 299.413 688.425 284.386 688.425 267.495C687.493 257.156 695.94 247.778 703.456 237.439C736.343 188.6 769.23 153.856 799.291 103.123C807.738 88.0954 827.489 53.3517 819.973 36.4306C811.526 17.6461 764.54 23.2664 735.411 23.2664C697.834 23.2664 648.984 20.4412 639.575 27.955C621.719 40.1574 614.204 59.9037 605.756 78.6881C586.968 121.907 561.596 166.028 535.293 198.909C525.883 210.179 508.057 233.652 497.716 229.896L497.746 229.926Z" fill="#464A46"/>
</svg>
